<svg width="30" height="30" viewBox="0 0 30 30" fill="none" xmlns="http://www.w3.org/2000/svg">
<path d="M0.937476 9.375H29.0624C29.58 9.375 29.9999 8.95496 29.9999 8.43752C29.9999 7.92 29.5799 7.50005 29.0624 7.50005H0.937476C0.419955 7.50005 0 7.92008 0 8.43752C0 8.95496 0.420033 9.375 0.937476 9.375Z" fill="black"/>
<path d="M29.0624 14.0625H0.937476C0.419955 14.0625 0 14.4826 0 15C0 15.5174 0.420033 15.9375 0.937476 15.9375H29.0624C29.58 15.9375 29.9999 15.5174 29.9999 15C29.9999 14.4826 29.58 14.0625 29.0624 14.0625Z" fill="black"/>
<path d="M29.0625 20.625H10.3125C9.79495 20.625 9.375 21.045 9.375 21.5625C9.375 22.08 9.79503 22.5 10.3125 22.5H29.0625C29.58 22.5 29.9999 22.0799 29.9999 21.5625C30 21.045 29.58 20.625 29.0625 20.625Z" fill="black"/>
</svg>
