<svg width="16" height="16" viewBox="0 0 16 16" fill="none" xmlns="http://www.w3.org/2000/svg">
<g clip-path="url(#clip0)">
<path d="M11.7814 0.499634H1.40625C0.630626 0.499634 0 1.13057 0 1.90589V9.40596C0 10.1816 0.630626 10.8122 1.40625 10.8122C2.39032 10.8122 2.5225 10.8122 2.5225 10.8122H2.81251V13.156C2.81251 13.5741 3.31938 13.7807 3.61251 13.4876C4.92126 12.1785 4.0022 13.0979 6.15036 10.9497C6.23848 10.8616 6.35723 10.8122 6.48192 10.8122H11.7813C12.5566 10.8122 13.1876 10.1816 13.1876 9.40596C13.1876 5.02905 13.1876 6.29342 13.1876 1.90589C13.1876 1.13057 12.5567 0.499634 11.7814 0.499634Z" fill="#8A8A8A"/>
<path d="M14.5938 2.37466H14.1313V9.406C14.1313 10.6983 13.0736 11.7498 11.7812 11.7498H6.73848L5.73848 12.681H9.71215L12.3873 15.3625C12.6813 15.6564 13.1875 15.4501 13.1875 15.0311V12.681H14.5938C15.3692 12.681 16 12.0565 16 11.281V3.78095C16 3.00548 15.3693 2.37466 14.5938 2.37466Z" fill="#8A8A8A"/>
</g>
<defs>
<clipPath id="clip0">
<rect width="16" height="16" fill="white"/>
</clipPath>
</defs>
</svg>
