<svg width="20" height="20" viewBox="0 0 20 20" fill="none" xmlns="http://www.w3.org/2000/svg">
<g clip-path="url(#clip0)">
<path d="M19.1374 6.40318C19.5472 6.92597 19.7438 7.48641 19.7187 8.06357C19.6936 8.69929 19.4092 9.19699 19.175 9.5023C19.4469 10.1798 19.5514 11.2463 18.6439 12.0744C17.9789 12.6809 16.8496 12.9527 15.2854 12.8775C14.1855 12.8273 13.2654 12.6223 13.2277 12.614H13.2235C13.0144 12.5763 12.7928 12.5303 12.5669 12.4801C12.5502 12.7478 12.5962 13.4128 13.0897 14.9101C13.6752 16.6918 13.6418 18.0552 12.981 18.967C12.2867 19.9247 11.1784 20 10.8521 20C10.5385 20 10.2499 19.8703 10.045 19.632C9.58071 19.0924 9.63508 18.097 9.69364 17.637C9.14157 16.1564 7.5941 12.5261 6.28502 11.5182C6.25993 11.5015 6.23902 11.4806 6.21811 11.4596C5.83333 11.054 5.57402 10.6148 5.39837 10.23C5.15161 10.3639 4.87139 10.4391 4.57026 10.4391H2.01903C1.05709 10.4391 0.279175 9.65705 0.279175 8.69929V1.90297C0.279175 0.941029 1.06127 0.163113 2.01903 0.163113H4.57026C4.94249 0.163113 5.28963 0.280218 5.57402 0.48097L6.55688 0.363865C6.70744 0.342955 9.38414 0.00418472 12.1319 0.0585537C12.6296 0.0209141 13.0981 0 13.533 0C14.2817 0 14.9341 0.0585537 15.4778 0.175659C16.7576 0.447512 17.6317 0.991219 18.0751 1.79005C18.4138 2.40067 18.4138 3.00711 18.3595 3.39189C19.1917 4.14471 19.3381 4.977 19.3088 5.56253C19.2921 5.9013 19.2168 6.18988 19.1374 6.40318ZM2.01903 1.29235C1.68026 1.29235 1.40841 1.56838 1.40841 1.90297V8.70347C1.40841 9.04224 1.68444 9.3141 2.01903 9.3141H4.57026C4.90903 9.3141 5.18088 9.03806 5.18088 8.70347V1.90715C5.18088 1.56838 4.90485 1.29653 4.57026 1.29653H2.01903V1.29235ZM18.0667 6.89251C17.891 6.70849 17.8576 6.42827 17.9914 6.21079C17.9914 6.20661 18.1629 5.91385 18.1838 5.51234C18.2131 4.96445 17.9496 4.4793 17.3975 4.06525C17.2009 3.91468 17.1215 3.65537 17.2051 3.42116C17.2051 3.41698 17.385 2.86491 17.0922 2.34212C16.812 1.84023 16.1888 1.48055 15.2436 1.2798C14.4866 1.11669 13.4577 1.08741 12.1947 1.18779C12.178 1.18779 12.157 1.18779 12.1361 1.18779C9.44688 1.12924 6.72835 1.48055 6.69908 1.48474H6.69489L6.27248 1.53492C6.29757 1.65203 6.31012 1.7775 6.31012 1.90297V8.70347C6.31012 8.88331 6.28084 9.05897 6.23065 9.22208C6.30594 9.5023 6.51505 10.1255 7.00857 10.6566C8.88644 12.1455 10.7225 17.1685 10.802 17.386C10.8354 17.4739 10.8438 17.5701 10.8271 17.6662C10.756 18.1347 10.781 18.7077 10.8814 18.8791C11.1031 18.8749 11.7012 18.8122 12.0608 18.3145C12.4874 17.7248 12.4707 16.6708 12.0107 15.2739C11.308 13.1451 11.2495 12.0243 11.8057 11.5307C12.0818 11.284 12.4498 11.2714 12.7175 11.3676C12.9726 11.4262 13.2152 11.4764 13.4452 11.514C13.4619 11.5182 13.4828 11.5224 13.4996 11.5266C14.7836 11.8068 17.0838 11.9783 17.8827 11.2505C18.5602 10.6315 18.0792 9.8118 18.0249 9.72397C17.8701 9.48975 17.9161 9.18444 18.1252 8.99624C18.1294 8.99205 18.5686 8.578 18.5895 8.02175C18.6062 7.64952 18.4306 7.26893 18.0667 6.89251Z" fill="#C9353D"/>
</g>
<defs>
<clipPath id="clip0">
<rect width="20" height="20" fill="white" transform="matrix(1 0 0 -1 0 20)"/>
</clipPath>
</defs>
</svg>
