<svg width="25" height="25" viewBox="0 0 25 25" fill="none" xmlns="http://www.w3.org/2000/svg">
<g clip-path="url(#clip0)">
<path d="M23.6201 4.35114e-06H1.37884C0.617233 0.000385821 1.25002 -8.34465e-07 1.5075e-05 -4.52995e-06V23.6212C0.000396545 24.3828 -1.23533e-07 24.1667 0 25C0.761795 24.9998 25 25 25 25C25 23.75 24.9998 24.3826 25 23.6206V9.17912e-06C23.3334 -1.37997 24.3818 -0.000186384 23.6201 4.35114e-06Z" fill="#4267B2"/>
<path d="M17.2607 25V15.332H20.52L21.0083 11.5479H17.2607V9.13773C17.2607 8.04463 17.5642 7.29981 19.1317 7.29981H21.1182V3.92438C20.7726 3.87841 19.5868 3.7756 18.207 3.7756C15.3261 3.7756 13.3545 5.53342 13.3545 8.76294V11.5479H10.1074V15.332H13.3545V25H17.2607Z" fill="white"/>
</g>
<defs>
<clipPath id="clip0">
<rect width="25" height="25" fill="white"/>
</clipPath>
</defs>
</svg>
