<svg width="25" height="25" viewBox="0 0 25 25" fill="none" xmlns="http://www.w3.org/2000/svg">
<path d="M25 0H0V25H25V0Z" fill="#0084B1"/>
<path d="M5.88368 3.79692C7.02871 3.79785 7.97307 4.74359 7.9706 5.89432C7.96786 7.09925 6.96793 8.00741 5.86958 7.98124C4.75555 8.00379 3.77651 7.07331 3.77673 5.88637C3.77673 4.73519 4.72477 3.79604 5.88368 3.79692Z" fill="white"/>
<path d="M7.10019 21.2006H4.64693C4.32854 21.2006 4.07043 20.9425 4.07043 20.6241V10.1584C4.07043 9.84001 4.32854 9.58191 4.64693 9.58191H7.10019C7.41858 9.58191 7.67668 9.84001 7.67668 10.1584V20.6242C7.67663 20.9425 7.41858 21.2006 7.10019 21.2006Z" fill="white"/>
<path d="M21.2233 13.2579C21.2233 11.0639 19.4447 9.28519 17.2506 9.28519H16.6213C15.421 9.28519 14.3605 9.88411 13.7226 10.7996C13.653 10.8994 13.5886 11.003 13.5295 11.1099C13.509 11.1069 13.4969 11.1053 13.4966 11.1058V9.82119C13.4966 9.68904 13.3895 9.58185 13.2573 9.58185H10.1966C10.0644 9.58185 9.95721 9.68899 9.95721 9.82119V20.9614C9.95721 21.0935 10.0643 21.2007 10.1964 21.2007L13.3239 21.2015C13.4561 21.2015 13.5633 21.0943 13.5633 20.9621V14.5262C13.5633 13.4137 14.4506 12.4899 15.563 12.4774C16.1309 12.4709 16.6458 12.6985 17.0168 13.0698C17.383 13.4357 17.6094 13.9417 17.6094 14.5004V20.963C17.6094 21.0951 17.7165 21.2022 17.8486 21.2023L20.9838 21.2031C21.116 21.2031 21.2232 21.0959 21.2232 20.9637V13.2579H21.2233Z" fill="white"/>
</svg>
