<svg width="14" height="14" viewBox="0 0 14 14" fill="none" xmlns="http://www.w3.org/2000/svg">
<g clip-path="url(#clip0)">
<path d="M6.99995 7.88564C11.2064 7.88564 13.5231 9.8756 13.5231 13.4891C13.5231 13.7713 13.2943 14 13.0121 14H0.987796C0.705582 14 0.476851 13.7713 0.476851 13.4891C0.476824 9.8758 2.79347 7.88564 6.99995 7.88564ZM12.4826 12.9781C12.2816 10.2764 10.4397 8.90755 6.99995 8.90755C3.56024 8.90755 1.71826 10.2764 1.51712 12.9781H12.4826Z" fill="white"/>
<path d="M6.99999 0C8.93224 0 10.3893 1.48635 10.3893 3.45726C10.3893 5.48589 8.86886 7.13609 6.99999 7.13609C5.13113 7.13609 3.6107 5.48589 3.6107 3.45743C3.6107 1.48635 5.06774 0 6.99999 0ZM6.99999 6.11436C8.30547 6.11436 9.36739 4.92248 9.36739 3.45743C9.36739 2.04619 8.37172 1.02189 6.99999 1.02189C5.65022 1.02189 4.6326 2.06883 4.6326 3.45743C4.6326 4.92248 5.69452 6.11436 6.99999 6.11436Z" fill="white"/>
</g>
<defs>
<clipPath id="clip0">
<rect width="14" height="14" fill="white" transform="matrix(-1 0 0 1 14 0)"/>
</clipPath>
</defs>
</svg>
