<svg width="31" height="43" viewBox="0 0 31 43" fill="none" xmlns="http://www.w3.org/2000/svg">
<g clip-path="url(#clip0)">
<path d="M16.0771 23.4133V0.454C16.0771 0.0216223 15.5314 -0.172948 15.2796 0.194574L12.8029 3.69684C12.2782 4.43188 12.0054 5.33987 12.0054 6.24787V26.3967C12.9918 25.7265 14.0203 24.9915 15.0697 24.1699C15.4055 23.9321 15.7413 23.6727 16.0771 23.4133Z" fill="#1A78F2"/>
<path d="M30.6223 11.3932C29.5938 9.98794 25.648 9.87984 21.6812 12.539V7.04776C21.6812 6.16139 21.3034 5.29663 20.6528 4.71292L18.6588 2.91855C18.2601 2.55103 17.6304 2.8537 17.6304 3.39417V22.0945C19.1836 20.7325 20.5688 19.3705 21.6602 18.095C21.6812 18.0734 21.6812 18.0734 21.7022 18.0518V14.2036C23.7381 12.993 25.1023 13.2956 25.4801 13.8361C26.6345 15.4143 22.4578 20.6893 16.1192 25.5968C9.8017 30.5259 3.71504 33.2283 2.56067 31.6501C1.91003 30.7637 3.73603 27.4776 6.40156 24.7753V29.5747C7.55593 29.0774 8.92018 28.364 10.4733 27.4128V8.47461C10.4733 8.04223 9.92763 7.84766 9.67577 8.21519L7.19913 11.7391C6.67442 12.4741 6.40156 13.3821 6.40156 14.2901V23.1539C1.99398 27.7587 -0.944408 33.2931 0.293913 34.9794C1.17543 36.1684 3.4212 36.1252 6.40156 35.0875V36.6008C6.40156 37.4872 6.77936 38.3519 7.43 38.9357L9.42391 40.73C9.82269 41.0975 10.4523 40.7949 10.4523 40.2544V33.3147C10.9561 33.0553 11.4808 32.7743 12.0055 32.4716V42.546C12.0055 42.9784 12.5512 43.173 12.8031 42.8054L15.2587 39.2816C15.7834 38.5465 16.0563 37.6385 16.0563 36.7305V29.899C16.56 29.5531 17.0847 29.1639 17.6094 28.7964V34.7848C17.6094 35.2172 18.1551 35.4118 18.407 35.0443L20.8626 31.5204C21.3873 30.7853 21.6602 29.8773 21.6602 28.9693V25.5319C28.3765 19.6732 32.2804 13.6632 30.6223 11.3932Z" fill="#1A78F2"/>
</g>
<defs>
<clipPath id="clip0">
<rect width="31" height="43" fill="white"/>
</clipPath>
</defs>
</svg>
