<svg width="45" height="62" viewBox="0 0 45 62" fill="none" xmlns="http://www.w3.org/2000/svg">
<g clip-path="url(#clip0)">
<path d="M23.3378 33.7587V0.654596C23.3378 0.0311671 22.5457 -0.249376 22.1801 0.280539L18.585 5.33031C17.8233 6.39014 17.4272 7.69934 17.4272 9.00854V38.0603C18.8592 37.094 20.3521 36.0342 21.8754 34.8497C22.3629 34.5068 22.8504 34.1327 23.3378 33.7587Z" fill="#1A78F2"/>
<path d="M44.4516 16.4273C42.9587 14.4012 37.2309 14.2453 31.4726 18.0794V10.1619C31.4726 8.88385 30.9242 7.637 29.9797 6.79537L27.0853 4.20814C26.5064 3.67822 25.5924 4.11462 25.5924 4.89391V31.8572C27.847 29.8934 29.8578 27.9296 31.4421 26.0905C31.4726 26.0593 31.4726 26.0593 31.5031 26.0282V20.4796C34.4584 18.734 36.4387 19.1704 36.9871 19.9497C38.6628 22.2252 32.5999 29.8311 23.3988 36.907C14.2282 44.0141 5.39269 47.9105 3.717 45.635C2.77252 44.357 5.42316 39.6189 9.29249 35.7225V42.6425C10.9682 41.9256 12.9485 40.8969 15.2031 39.5254V12.2192C15.2031 11.5958 14.411 11.3152 14.0454 11.8451L10.4502 16.9261C9.68856 17.9859 9.29249 19.2951 9.29249 20.6043V33.3846C2.89438 40.0241 -1.37102 48.004 0.426544 50.4354C1.70616 52.1498 4.96615 52.0875 9.29249 50.5913V52.7733C9.29249 54.0513 9.8409 55.2981 10.7854 56.1398L13.6798 58.727C14.2586 59.2569 15.1727 58.8205 15.1727 58.0412V48.0352C15.9039 47.6611 16.6655 47.2559 17.4272 46.8195V61.3454C17.4272 61.9688 18.2194 62.2494 18.585 61.7195L22.1496 56.6385C22.9113 55.5787 23.3074 54.2695 23.3074 52.9603V43.1101C24.0386 42.6114 24.8003 42.0503 25.562 41.5204V50.1549C25.562 50.7783 26.3541 51.0588 26.7197 50.5289L30.2844 45.448C31.046 44.3881 31.4421 43.0789 31.4421 41.7697V36.8135C41.1916 28.366 46.8585 19.7003 44.4516 16.4273Z" fill="#1A78F2"/>
</g>
<defs>
<clipPath id="clip0">
<rect width="45" height="62" fill="white"/>
</clipPath>
</defs>
</svg>
