<svg width="25" height="25" viewBox="0 0 25 25" fill="none" xmlns="http://www.w3.org/2000/svg">
<path d="M25 0H0V25H25V0Z" fill="#C9353D"/>
<path d="M8.81005 20.9553C4.7299 19.2503 2.07395 14.3913 3.76305 9.45635C5.43393 4.57457 10.8391 2.01808 15.706 3.82539C20.5867 5.63787 23.0008 11.0233 21.1086 15.8511C19.1498 20.8493 13.8981 22.6176 9.96062 21.3707C10.255 20.6437 10.5899 19.9263 10.8353 19.1795C11.0817 18.4295 11.2388 17.6502 11.4236 16.9284C11.5827 17.0622 11.7426 17.2041 11.91 17.3364C12.7801 18.0241 13.7645 18.0908 14.7958 17.8429C15.8916 17.5794 16.7577 16.958 17.399 16.0447C18.4837 14.4999 18.8665 12.7522 18.6043 10.913C18.3332 9.01124 17.2072 7.63499 15.4418 6.94198C12.782 5.89783 10.2604 6.24936 8.07623 8.16304C6.3964 9.63485 5.8317 12.13 6.63969 14.0724C6.91973 14.7458 7.36232 15.2742 8.0319 15.5917C8.37125 15.7526 8.5153 15.687 8.6135 15.3326C8.62079 15.3062 8.62968 15.2802 8.63933 15.2546C8.82738 14.7587 8.7835 14.351 8.44881 13.8722C7.83892 12.9997 7.9477 11.9896 8.24195 11.0218C8.79995 9.18656 10.4396 7.96204 12.3626 7.94427C12.8777 7.9395 13.4079 7.98366 13.9068 8.10539C15.3906 8.46739 16.3487 9.61494 16.4447 11.1364C16.5217 12.3565 16.331 13.5418 15.8006 14.656C15.5379 15.2075 15.1913 15.698 14.6753 16.0452C14.1907 16.3713 13.6607 16.5028 13.0857 16.3525C12.2934 16.1455 11.8436 15.4227 12.044 14.6296C12.2517 13.8076 12.5204 13.0009 12.7241 12.1781C12.8103 11.8301 12.8555 11.4521 12.8202 11.0976C12.7238 10.1321 11.8115 9.68181 10.9587 10.1532C10.3614 10.4834 10.0738 11.0352 9.94037 11.6738C9.80296 12.3316 9.8695 12.98 10.0835 13.6179C10.1266 13.7461 10.1329 13.9044 10.1026 14.0366C9.71513 15.7262 9.30074 17.4098 8.9338 19.1037C8.82672 19.598 8.84658 20.12 8.81098 20.6296C8.80423 20.7271 8.81005 20.8256 8.81005 20.9553Z" fill="white"/>
</svg>
