<svg width="44" height="50" viewBox="0 0 44 50" fill="none" xmlns="http://www.w3.org/2000/svg">
<path d="M21.9991 0C9.89783 0 0.0865479 9.81129 0.0865479 21.9125C0.0865479 28.1727 2.72491 33.8033 6.93285 37.7935L6.19978 50L16.608 43.1283C18.3355 43.5656 20.1355 43.8233 21.9991 43.8233C34.1021 43.8233 43.9116 34.0138 43.9116 21.9107C43.9134 9.81129 34.1021 0 21.9991 0ZM19.8815 20.5807C19.8815 22.8307 19.4133 24.6071 18.477 25.9082C17.5407 27.2092 15.9367 28.3615 13.6612 29.3558L11.9465 26.1096C13.3455 25.4545 14.3126 24.7995 14.8461 24.1499C15.3814 23.4966 15.679 22.7273 15.7407 21.84H11.9465V14.4692H19.8815V20.5807ZM32.0517 20.5807C32.0517 22.8307 31.5835 24.6071 30.6472 25.9082C29.7109 27.2128 28.1069 28.3615 25.8314 29.3558L24.1185 26.1096C25.5175 25.4545 26.4847 24.7995 27.02 24.1499C27.5552 23.4966 27.8528 22.7273 27.9145 21.84H24.1203V14.4692H32.0553L32.0517 20.5807Z" fill="#8A8A8A"/>
</svg>
