<svg width="25" height="25" viewBox="0 0 25 25" fill="none" xmlns="http://www.w3.org/2000/svg">
<path d="M25 0H0V25H25V0Z" fill="#50ABF1"/>
<path d="M3.31208 18.5319C4.97589 19.5871 6.94953 20.1978 9.0652 20.1978C15.0089 20.1978 19.827 15.3791 19.827 9.43594C19.827 9.28755 19.8239 9.14026 19.8182 8.99341C20.0332 8.82423 21.3628 7.75852 21.6887 7.07341C21.6887 7.07341 20.609 7.52214 19.5522 7.62785C19.5501 7.62785 19.5475 7.62835 19.5455 7.62835C19.5455 7.62835 19.5475 7.6273 19.5512 7.62473C19.6485 7.55967 21.0099 6.63297 21.1942 5.52881C21.1942 5.52881 20.4305 5.93645 19.3611 6.29307C19.1841 6.35188 18.9988 6.4097 18.8077 6.46329C18.1185 5.72766 17.1387 5.26851 16.0512 5.26851C13.9651 5.26851 12.2748 6.95838 12.2748 9.04283C12.2748 9.33698 12.3086 9.62328 12.3726 9.89816C12.0811 9.8862 7.64193 9.63732 4.62195 5.98011C4.62195 5.98011 2.81705 8.44412 5.69753 10.9779C5.69753 10.9779 4.8219 10.943 4.06647 10.4916C4.06647 10.4916 3.789 13.4767 7.05107 14.2399C7.05107 14.2399 6.40919 14.4831 5.38518 14.3097C5.38518 14.3097 5.95783 16.7217 8.85603 16.9471C8.85603 16.9471 6.56427 19.0174 3.31104 18.5316L3.31208 18.5319Z" fill="white"/>
</svg>
