<svg width="16" height="16" viewBox="0 0 16 16" fill="none" xmlns="http://www.w3.org/2000/svg">
<g clip-path="url(#clip0)">
<path d="M15.9121 7.7272C15.7693 7.52751 12.3646 2.84369 8.03143 2.84369C3.69793 2.84369 0.230703 7.52751 0.0878907 7.7272C-0.0292969 7.89032 -0.0292969 8.11001 0.0878907 8.27282C0.230703 8.47251 3.69793 13.1563 8.03143 13.1563C12.3646 13.1563 15.7693 8.47251 15.9121 8.27279C16.0293 8.11001 16.0293 7.89029 15.9121 7.7272ZM8.03143 11.2813C6.22233 11.2813 4.68764 9.80907 4.68764 7.99998C4.68764 6.19088 6.22233 4.71869 8.03143 4.71869C9.84053 4.71869 11.3127 6.19088 11.3127 7.99998C11.3127 9.80907 9.84053 11.2813 8.03143 11.2813Z" fill="#8A8A8A"/>
<path d="M8.03147 6.59372C7.25584 6.59372 6.56271 7.22466 6.56271 7.99997C6.56271 8.77559 7.25584 9.40622 8.03147 9.40622C8.80679 9.40622 9.43773 8.77559 9.43773 7.99997C9.43773 7.22466 8.80679 6.59372 8.03147 6.59372Z" fill="#8A8A8A"/>
</g>
<defs>
<clipPath id="clip0">
<rect width="16" height="16" fill="white"/>
</clipPath>
</defs>
</svg>
